# xmcd CD database file
# Copyright (C) 1993-1998 Ti Kan
# 
# Track frame offsets:
#     150
#     15790
#     33370
#     48927
#     60510
#     73195
#     86950
#     101955
#     115572
#     126367
#     138527
#     153057
#     171342
#     182315
#     195897
#     210270
#     235262
#     256800
#     274027
#     286170
# 
# Disc length: 4024 seconds
# 
# Revision: 1
# Processed by: cddbd v1.4b41PL1 Copyright (c) Steve Scherf et al.
# Submitted via: DiscPlay 4.0.4
# 
DISCID=070fb614
DTITLE=Engelbert Humperdink - Engelbert In Love
DYEAR=1900
DGENRE=
TTITLE0=A Man Without Love
TTITLE1=Killing Me Softly With Her Song
TTITLE2=The Last Waltz
TTITLE3=Help Me Make It Through The Night
TTITLE4=There Goes My Everything
TTITLE5=My Cherie Amour
TTITLE6=Winter World Of Love
TTITLE7=The Way It Used To Be
TTITLE8=Somthing
TTITLE9=Cloe To You
TTITLE10=Am I That Easy To Forget
TTITLE11=Love Me Tender
TTITLE12=Release Me
TTITLE13=Quando, Quando, Quando (Tell Me When)
TTITLE14=The Most Beautiful Girl
TTITLE15=Spanish Eyes
TTITLE16=Just The Way You Are
TTITLE17=The First Time Ever I Saw Your Face
TTITLE18=You Are The Sunshine Of My Life
TTITLE19=And I Love You So
EXTD=
EXTT0=
EXTT1=
EXTT2=
EXTT3=
EXTT4=
EXTT5=
EXTT6=
EXTT7=
EXTT8=
EXTT9=
EXTT10=
EXTT11=
EXTT12=
EXTT13=
EXTT14=
EXTT15=
EXTT16=
EXTT17=
EXTT18=
EXTT19=
PLAYORDER=
